# xmcd
#
# Track frame offsets: 
#        150
#        16141
#        29485
#        41202
#        55756
#        85845
#        101407
#        114103
#        128662
#        139342
#        154941
#        166342
#        180868
#        196442
#        208856
#        220305
#
# Disc length: 3110 seconds
#
# Revision: 3
# Processed by: cddbd v1.5.2PL0 Copyright (c) Steve Scherf et al.
# Submitted via: ExactAudioCopy v1.0b3
#
DISCID=d70c2410
DTITLE=Benny Goodman - Stompin At The Savoy_CD2 (History 2CD Set)
DYEAR=2000
DGENRE=Swing
TTITLE0=I Cant Give You Anything But Love, Baby
TTITLE1=Sihouetted In The Moonlight
TTITLE2=Loch Lomond
TTITLE3=Thanks For The Memory
TTITLE4=Bei Mir Bist Du Schon ( Parts I and II )
TTITLE5=I Let A Song Go Out Of My Heart
TTITLE6=This Can't Be Love
TTITLE7=And The Angels Sing
TTITLE8=Get Rhythm In Your Feet ( And Music In Your Soul )
TTITLE9=It's Been So Long
TTITLE10=Goody Goody
TTITLE11=All My Life
TTITLE12=Too Good To Be True
TTITLE13=These Foolish Things Remind Me Of You
TTITLE14=There's A Small Hotel
TTITLE15=You Turned The Tables On Me
EXTD=YEAR: 1929-47
EXTT0=
EXTT1=
EXTT2=
EXTT3=
EXTT4=
EXTT5=
EXTT6=
EXTT7=
EXTT8=
EXTT9=
EXTT10=
EXTT11=
EXTT12=
EXTT13=
EXTT14=
EXTT15=
PLAYORDER=
